<svg xmlns="http://www.w3.org/2000/svg" viewBox="0 0 176 88" width="176" height="88" shape-rendering="crispEdges">
  <!-- Frame 0: Plague Hydra - multi-headed toxic beast -->
  <g>
    <!-- Left head -->
    <rect x="8" y="0" width="16" height="14" fill="#2ecc71"/>
    <rect x="10" y="2" width="12" height="10" fill="#27ae60"/>
    <rect x="10" y="4" width="4" height="4" fill="#111"/>
    <rect x="11" y="5" width="2" height="2" fill="#ff0"/>
    <rect x="18" y="4" width="4" height="4" fill="#111"/>
    <rect x="19" y="5" width="2" height="2" fill="#ff0"/>
    <rect x="12" y="10" width="8" height="4" fill="#1a7a3a"/>
    <rect x="13" y="10" width="2" height="3" fill="#ddd"/>
    <rect x="17" y="10" width="2" height="3" fill="#ddd"/>

    <!-- Center head (main, bigger) -->
    <rect x="28" y="0" width="32" height="20" fill="#2ecc71"/>
    <rect x="30" y="2" width="28" height="16" fill="#27ae60"/>
    <rect x="32" y="6" width="8" height="6" fill="#111"/>
    <rect x="34" y="7" width="4" height="4" fill="#ff0"/>
    <rect x="48" y="6" width="8" height="6" fill="#111"/>
    <rect x="50" y="7" width="4" height="4" fill="#ff0"/>
    <rect x="36" y="14" width="16" height="6" fill="#1a7a3a"/>
    <rect x="38" y="14" width="3" height="5" fill="#ddd"/>
    <rect x="43" y="14" width="3" height="4" fill="#ddd"/>
    <rect x="48" y="14" width="3" height="5" fill="#ddd"/>

    <!-- Right head -->
    <rect x="64" y="0" width="16" height="14" fill="#2ecc71"/>
    <rect x="66" y="2" width="12" height="10" fill="#27ae60"/>
    <rect x="66" y="4" width="4" height="4" fill="#111"/>
    <rect x="67" y="5" width="2" height="2" fill="#ff0"/>
    <rect x="74" y="4" width="4" height="4" fill="#111"/>
    <rect x="75" y="5" width="2" height="2" fill="#ff0"/>
    <rect x="68" y="10" width="8" height="4" fill="#1a7a3a"/>
    <rect x="69" y="10" width="2" height="3" fill="#ddd"/>
    <rect x="73" y="10" width="2" height="3" fill="#ddd"/>

    <!-- Necks -->
    <rect x="12" y="12" width="8" height="14" fill="#27ae60"/>
    <rect x="36" y="18" width="16" height="8" fill="#27ae60"/>
    <rect x="68" y="12" width="8" height="14" fill="#27ae60"/>

    <!-- Body (massive, bloated) -->
    <rect x="8" y="24" width="72" height="36" fill="#27ae60"/>
    <rect x="12" y="26" width="64" height="32" fill="#2ecc71"/>
    <!-- Toxic pustules -->
    <rect x="20" y="30" width="8" height="8" fill="#f39c12"/>
    <rect x="22" y="32" width="4" height="4" fill="#e67e22"/>
    <rect x="40" y="28" width="10" height="10" fill="#f39c12"/>
    <rect x="42" y="30" width="6" height="6" fill="#e67e22"/>
    <rect x="44" y="32" width="2" height="2" fill="#fff"/>
    <rect x="58" y="32" width="8" height="8" fill="#f39c12"/>
    <rect x="60" y="34" width="4" height="4" fill="#e67e22"/>
    <!-- Ooze drips -->
    <rect x="24" y="46" width="4" height="8" fill="#1a7a3a"/>
    <rect x="48" y="48" width="4" height="6" fill="#1a7a3a"/>
    <rect x="60" y="44" width="4" height="10" fill="#1a7a3a"/>

    <!-- Stubby arms -->
    <rect x="2" y="30" width="10" height="16" fill="#2ecc71"/>
    <rect x="4" y="32" width="6" height="12" fill="#27ae60"/>
    <rect x="2" y="44" width="8" height="6" fill="#1a7a3a"/>
    <rect x="76" y="30" width="10" height="16" fill="#2ecc71"/>
    <rect x="78" y="32" width="6" height="12" fill="#27ae60"/>
    <rect x="78" y="44" width="8" height="6" fill="#1a7a3a"/>

    <!-- Legs (wide, stumpy) -->
    <rect x="14" y="58" width="18" height="16" fill="#1a7a3a"/>
    <rect x="16" y="60" width="14" height="12" fill="#27ae60"/>
    <rect x="56" y="58" width="18" height="16" fill="#1a7a3a"/>
    <rect x="58" y="60" width="14" height="12" fill="#27ae60"/>
    <!-- Feet -->
    <rect x="10" y="72" width="22" height="6" fill="#145a2a"/>
    <rect x="52" y="72" width="22" height="6" fill="#145a2a"/>
    <!-- Toxic puddle -->
    <rect x="8" y="78" width="72" height="4" fill="#2ecc71" opacity="0.3"/>
    <rect x="16" y="80" width="56" height="4" fill="#2ecc71" opacity="0.2"/>
  </g>

  <!-- Frame 1 (heads sway, pustules pulse) -->
  <g transform="translate(88,0)">
    <!-- Left head (swayed left) -->
    <rect x="4" y="2" width="16" height="14" fill="#2ecc71"/>
    <rect x="6" y="4" width="12" height="10" fill="#27ae60"/>
    <rect x="6" y="6" width="4" height="4" fill="#111"/>
    <rect x="7" y="7" width="2" height="2" fill="#ff0"/>
    <rect x="14" y="6" width="4" height="4" fill="#111"/>
    <rect x="15" y="7" width="2" height="2" fill="#ff0"/>
    <rect x="8" y="12" width="8" height="4" fill="#1a7a3a"/>
    <rect x="9" y="12" width="2" height="3" fill="#ddd"/>
    <rect x="13" y="12" width="2" height="3" fill="#ddd"/>

    <!-- Center head (slightly up) -->
    <rect x="28" y="0" width="32" height="18" fill="#2ecc71"/>
    <rect x="30" y="2" width="28" height="14" fill="#27ae60"/>
    <rect x="32" y="4" width="8" height="6" fill="#111"/>
    <rect x="34" y="5" width="4" height="4" fill="#ff0"/>
    <rect x="48" y="4" width="8" height="6" fill="#111"/>
    <rect x="50" y="5" width="4" height="4" fill="#ff0"/>
    <rect x="34" y="12" width="20" height="8" fill="#1a7a3a"/>
    <rect x="36" y="12" width="3" height="5" fill="#ddd"/>
    <rect x="41" y="12" width="3" height="6" fill="#ddd"/>
    <rect x="46" y="12" width="3" height="5" fill="#ddd"/>
    <rect x="51" y="12" width="3" height="6" fill="#ddd"/>

    <!-- Right head (swayed right) -->
    <rect x="68" y="2" width="16" height="14" fill="#2ecc71"/>
    <rect x="70" y="4" width="12" height="10" fill="#27ae60"/>
    <rect x="70" y="6" width="4" height="4" fill="#111"/>
    <rect x="71" y="7" width="2" height="2" fill="#ff0"/>
    <rect x="78" y="6" width="4" height="4" fill="#111"/>
    <rect x="79" y="7" width="2" height="2" fill="#ff0"/>
    <rect x="72" y="12" width="8" height="4" fill="#1a7a3a"/>
    <rect x="73" y="12" width="2" height="3" fill="#ddd"/>
    <rect x="77" y="12" width="2" height="3" fill="#ddd"/>

    <!-- Necks -->
    <rect x="10" y="14" width="8" height="14" fill="#27ae60"/>
    <rect x="36" y="16" width="16" height="10" fill="#27ae60"/>
    <rect x="70" y="14" width="8" height="14" fill="#27ae60"/>

    <!-- Body -->
    <rect x="8" y="26" width="72" height="34" fill="#27ae60"/>
    <rect x="12" y="28" width="64" height="30" fill="#2ecc71"/>
    <!-- Pustules (brighter pulse) -->
    <rect x="18" y="32" width="10" height="10" fill="#f1c40f"/>
    <rect x="20" y="34" width="6" height="6" fill="#e67e22"/>
    <rect x="22" y="36" width="2" height="2" fill="#fff"/>
    <rect x="38" y="30" width="12" height="12" fill="#f1c40f"/>
    <rect x="40" y="32" width="8" height="8" fill="#e67e22"/>
    <rect x="42" y="34" width="4" height="4" fill="#fff"/>
    <rect x="58" y="34" width="10" height="10" fill="#f1c40f"/>
    <rect x="60" y="36" width="6" height="6" fill="#e67e22"/>

    <!-- Arms -->
    <rect x="2" y="32" width="10" height="14" fill="#2ecc71"/>
    <rect x="4" y="34" width="6" height="10" fill="#27ae60"/>
    <rect x="76" y="32" width="10" height="14" fill="#2ecc71"/>
    <rect x="78" y="34" width="6" height="10" fill="#27ae60"/>

    <!-- Legs -->
    <rect x="12" y="58" width="18" height="16" fill="#1a7a3a"/>
    <rect x="14" y="60" width="14" height="12" fill="#27ae60"/>
    <rect x="58" y="59" width="18" height="16" fill="#1a7a3a"/>
    <rect x="60" y="61" width="14" height="12" fill="#27ae60"/>
    <rect x="8" y="72" width="22" height="6" fill="#145a2a"/>
    <rect x="54" y="73" width="22" height="6" fill="#145a2a"/>
    <rect x="6" y="78" width="76" height="4" fill="#2ecc71" opacity="0.4"/>
  </g>
</svg>
