<svg xmlns="http://www.w3.org/2000/svg" viewBox="0 0 176 88" width="176" height="88" shape-rendering="crispEdges">
  <!-- Frame 0 -->
  <g>
    <!-- Crown -->
    <rect x="26" y="0" width="8" height="12" fill="#ffcc00"/>
    <rect x="27" y="0" width="6" height="6" fill="#ffee55"/>
    <rect x="39" y="0" width="8" height="14" fill="#ffcc00"/>
    <rect x="40" y="0" width="6" height="8" fill="#ffee55"/>
    <rect x="52" y="0" width="8" height="12" fill="#ffcc00"/>
    <rect x="53" y="0" width="6" height="6" fill="#ffee55"/>
    <!-- Crown base -->
    <rect x="22" y="10" width="44" height="6" fill="#ddaa00"/>

    <!-- Head -->
    <rect x="20" y="14" width="48" height="22" fill="#dd4444"/>
    <rect x="22" y="16" width="44" height="18" fill="#ff6b6b"/>
    <!-- Forehead lines -->
    <rect x="28" y="16" width="32" height="2" fill="#cc3333"/>

    <!-- Eyes (large, menacing) -->
    <rect x="24" y="22" width="14" height="8" fill="#111"/>
    <rect x="50" y="22" width="14" height="8" fill="#111"/>
    <rect x="26" y="23" width="10" height="6" fill="#ff0000"/>
    <rect x="52" y="23" width="10" height="6" fill="#ff0000"/>
    <!-- Pupils -->
    <rect x="30" y="24" width="4" height="4" fill="#ffcc00"/>
    <rect x="31" y="25" width="2" height="2" fill="#fff"/>
    <rect x="54" y="24" width="4" height="4" fill="#ffcc00"/>
    <rect x="55" y="25" width="2" height="2" fill="#fff"/>

    <!-- Nose -->
    <rect x="40" y="28" width="8" height="4" fill="#cc3333"/>

    <!-- Mouth -->
    <rect x="26" y="32" width="36" height="6" fill="#660000"/>
    <!-- Upper teeth -->
    <rect x="28" y="32" width="4" height="4" fill="#eee"/>
    <rect x="34" y="32" width="4" height="5" fill="#eee"/>
    <rect x="40" y="32" width="4" height="4" fill="#eee"/>
    <rect x="46" y="32" width="4" height="5" fill="#eee"/>
    <rect x="52" y="32" width="4" height="4" fill="#eee"/>
    <!-- Lower teeth -->
    <rect x="30" y="36" width="4" height="3" fill="#ddd"/>
    <rect x="42" y="36" width="4" height="3" fill="#ddd"/>
    <rect x="54" y="36" width="4" height="3" fill="#ddd"/>

    <!-- Body -->
    <rect x="10" y="38" width="68" height="30" fill="#dd4444"/>
    <rect x="14" y="40" width="60" height="26" fill="#ff6b6b"/>
    <!-- Inner core (purple energy) -->
    <rect x="24" y="44" width="40" height="18" fill="#9a3db8"/>
    <rect x="28" y="46" width="32" height="14" fill="#be4bdb"/>
    <!-- Core glow -->
    <rect x="36" y="50" width="16" height="6" fill="#d66ef0"/>
    <rect x="40" y="52" width="8" height="2" fill="#eea0ff"/>

    <!-- Shoulder armor -->
    <rect x="4" y="36" width="12" height="10" fill="#993333"/>
    <rect x="5" y="37" width="10" height="8" fill="#bb4444"/>
    <rect x="72" y="36" width="12" height="10" fill="#993333"/>
    <rect x="73" y="37" width="10" height="8" fill="#bb4444"/>
    <!-- Spikes on shoulders -->
    <rect x="6" y="34" width="4" height="4" fill="#666"/>
    <rect x="12" y="35" width="3" height="3" fill="#666"/>
    <rect x="74" y="34" width="4" height="4" fill="#666"/>
    <rect x="79" y="35" width="3" height="3" fill="#666"/>

    <!-- Arms -->
    <rect x="2" y="44" width="10" height="20" fill="#ff6b6b"/>
    <rect x="3" y="45" width="8" height="18" fill="#dd4444"/>
    <rect x="76" y="44" width="10" height="20" fill="#ff6b6b"/>
    <rect x="77" y="45" width="8" height="18" fill="#dd4444"/>
    <!-- Fists -->
    <rect x="0" y="62" width="14" height="10" fill="#cc3333"/>
    <rect x="2" y="64" width="10" height="6" fill="#dd4444"/>
    <rect x="74" y="62" width="14" height="10" fill="#cc3333"/>
    <rect x="76" y="64" width="10" height="6" fill="#dd4444"/>

    <!-- Legs -->
    <rect x="18" y="68" width="14" height="16" fill="#cc3333"/>
    <rect x="20" y="70" width="10" height="12" fill="#aa2222"/>
    <rect x="56" y="68" width="14" height="16" fill="#cc3333"/>
    <rect x="58" y="70" width="10" height="12" fill="#aa2222"/>
    <!-- Feet -->
    <rect x="14" y="82" width="18" height="6" fill="#882222"/>
    <rect x="56" y="82" width="18" height="6" fill="#882222"/>
    <!-- Claws on feet -->
    <rect x="14" y="86" width="4" height="2" fill="#555"/>
    <rect x="20" y="86" width="4" height="2" fill="#555"/>
    <rect x="28" y="86" width="4" height="2" fill="#555"/>
    <rect x="56" y="86" width="4" height="2" fill="#555"/>
    <rect x="62" y="86" width="4" height="2" fill="#555"/>
    <rect x="70" y="86" width="4" height="2" fill="#555"/>
  </g>
  <!-- Frame 1 (arms raised, slight breath) -->
  <g transform="translate(88,0)">
    <!-- Crown -->
    <rect x="26" y="0" width="8" height="12" fill="#ffcc00"/>
    <rect x="27" y="0" width="6" height="6" fill="#ffee55"/>
    <rect x="39" y="0" width="8" height="14" fill="#ffcc00"/>
    <rect x="40" y="0" width="6" height="8" fill="#ffee55"/>
    <rect x="52" y="0" width="8" height="12" fill="#ffcc00"/>
    <rect x="53" y="0" width="6" height="6" fill="#ffee55"/>
    <rect x="22" y="10" width="44" height="6" fill="#ddaa00"/>

    <!-- Head -->
    <rect x="20" y="14" width="48" height="22" fill="#dd4444"/>
    <rect x="22" y="16" width="44" height="18" fill="#ff6b6b"/>
    <rect x="28" y="16" width="32" height="2" fill="#cc3333"/>

    <!-- Eyes (squinting, angrier) -->
    <rect x="24" y="23" width="14" height="6" fill="#111"/>
    <rect x="50" y="23" width="14" height="6" fill="#111"/>
    <rect x="26" y="24" width="10" height="4" fill="#ff0000"/>
    <rect x="52" y="24" width="10" height="4" fill="#ff0000"/>
    <rect x="30" y="24" width="4" height="4" fill="#ffcc00"/>
    <rect x="31" y="25" width="2" height="2" fill="#fff"/>
    <rect x="54" y="24" width="4" height="4" fill="#ffcc00"/>
    <rect x="55" y="25" width="2" height="2" fill="#fff"/>

    <!-- Nose -->
    <rect x="40" y="28" width="8" height="4" fill="#cc3333"/>

    <!-- Mouth (open wider) -->
    <rect x="24" y="32" width="40" height="8" fill="#660000"/>
    <rect x="26" y="32" width="4" height="4" fill="#eee"/>
    <rect x="32" y="32" width="4" height="5" fill="#eee"/>
    <rect x="38" y="32" width="4" height="4" fill="#eee"/>
    <rect x="44" y="32" width="4" height="5" fill="#eee"/>
    <rect x="50" y="32" width="4" height="4" fill="#eee"/>
    <rect x="56" y="32" width="4" height="5" fill="#eee"/>
    <rect x="28" y="38" width="4" height="3" fill="#ddd"/>
    <rect x="40" y="38" width="4" height="3" fill="#ddd"/>
    <rect x="52" y="38" width="4" height="3" fill="#ddd"/>

    <!-- Body -->
    <rect x="10" y="40" width="68" height="28" fill="#dd4444"/>
    <rect x="14" y="42" width="60" height="24" fill="#ff6b6b"/>
    <!-- Core (brighter pulse) -->
    <rect x="24" y="46" width="40" height="16" fill="#9a3db8"/>
    <rect x="28" y="48" width="32" height="12" fill="#be4bdb"/>
    <rect x="34" y="50" width="20" height="8" fill="#d66ef0"/>
    <rect x="38" y="52" width="12" height="4" fill="#eea0ff"/>

    <!-- Shoulder armor -->
    <rect x="4" y="38" width="12" height="10" fill="#993333"/>
    <rect x="5" y="39" width="10" height="8" fill="#bb4444"/>
    <rect x="72" y="38" width="12" height="10" fill="#993333"/>
    <rect x="73" y="39" width="10" height="8" fill="#bb4444"/>
    <rect x="6" y="36" width="4" height="4" fill="#666"/>
    <rect x="12" y="37" width="3" height="3" fill="#666"/>
    <rect x="74" y="36" width="4" height="4" fill="#666"/>
    <rect x="79" y="37" width="3" height="3" fill="#666"/>

    <!-- Arms (raised higher) -->
    <rect x="0" y="42" width="10" height="18" fill="#ff6b6b"/>
    <rect x="1" y="43" width="8" height="16" fill="#dd4444"/>
    <rect x="78" y="46" width="10" height="20" fill="#ff6b6b"/>
    <rect x="79" y="47" width="8" height="18" fill="#dd4444"/>
    <!-- Fists -->
    <rect x="0" y="58" width="14" height="10" fill="#cc3333"/>
    <rect x="2" y="60" width="10" height="6" fill="#dd4444"/>
    <rect x="74" y="64" width="14" height="10" fill="#cc3333"/>
    <rect x="76" y="66" width="10" height="6" fill="#dd4444"/>

    <!-- Legs -->
    <rect x="16" y="68" width="14" height="14" fill="#cc3333"/>
    <rect x="18" y="70" width="10" height="10" fill="#aa2222"/>
    <rect x="58" y="69" width="14" height="16" fill="#cc3333"/>
    <rect x="60" y="71" width="10" height="12" fill="#aa2222"/>
    <!-- Feet -->
    <rect x="12" y="80" width="18" height="6" fill="#882222"/>
    <rect x="58" y="83" width="18" height="5" fill="#882222"/>
    <rect x="12" y="84" width="4" height="2" fill="#555"/>
    <rect x="18" y="84" width="4" height="2" fill="#555"/>
    <rect x="26" y="84" width="4" height="2" fill="#555"/>
    <rect x="58" y="86" width="4" height="2" fill="#555"/>
    <rect x="64" y="86" width="4" height="2" fill="#555"/>
    <rect x="72" y="86" width="4" height="2" fill="#555"/>
  </g>
</svg>
