<svg xmlns="http://www.w3.org/2000/svg" viewBox="0 0 112 56" width="448" height="224" shape-rendering="geometricPrecision">
  <defs>
    <linearGradient id="ab-flesh" x1="0" y1="0" x2="0" y2="1">
      <stop offset="0%" stop-color="#8e24aa"/>
      <stop offset="100%" stop-color="#4a148c"/>
    </linearGradient>
    <linearGradient id="ab-flesh-hi" x1="0" y1="0" x2="0" y2="1">
      <stop offset="0%" stop-color="#ba68c8"/>
      <stop offset="100%" stop-color="#7b1fa2"/>
    </linearGradient>
    <linearGradient id="ab-flesh-dark" x1="0" y1="0" x2="0" y2="1">
      <stop offset="0%" stop-color="#6a1b9a"/>
      <stop offset="100%" stop-color="#2d0050"/>
    </linearGradient>
    <radialGradient id="ab-drool" cx="0.5" cy="0.5" r="0.5">
      <stop offset="0%" stop-color="#ccff90"/>
      <stop offset="100%" stop-color="#33691e"/>
    </radialGradient>
    <linearGradient id="ab-bone" x1="0" y1="0" x2="0" y2="1">
      <stop offset="0%" stop-color="#fffff0"/>
      <stop offset="100%" stop-color="#e0e0d0"/>
    </linearGradient>
  </defs>

  <!-- Frame 0: Lurching to one side (asymmetric, grotesque) -->
  <g stroke="#1a1a2e" stroke-width="1.2" stroke-linejoin="round">
    <!-- Shadow (irregular) -->
    <ellipse cx="26" cy="53" rx="20" ry="2.5" fill="#000" opacity="0.2" stroke="none"/>
    <!-- Massive asymmetric body (lurching left) -->
    <!-- Left thick leg -->
    <ellipse cx="16" cy="44" rx="9" ry="10" fill="url(#ab-flesh)"/>
    <!-- Right thinner leg -->
    <ellipse cx="34" cy="46" rx="6" ry="8" fill="url(#ab-flesh)"/>
    <!-- Foot lumps -->
    <ellipse cx="13" cy="53" rx="11" ry="3.5" fill="url(#ab-flesh-dark)"/>
    <ellipse cx="33" cy="53" rx="7" ry="3" fill="url(#ab-flesh-dark)"/>
    <!-- Main torso (massive, lopsided) -->
    <path d="M4,18 Q4,10 14,8 Q24,6 36,10 Q46,14 46,22 Q46,36 38,42 Q28,46 16,44 Q4,40 4,30 Q4,24 4,18Z" fill="url(#ab-flesh)"/>
    <!-- Body highlight (mottled) -->
    <ellipse cx="18" cy="22" rx="12" ry="10" fill="url(#ab-flesh-hi)" opacity="0.3" stroke="none"/>
    <!-- Exposed bone patches -->
    <path d="M8,28 Q10,24 14,26 Q12,30 8,28Z" fill="url(#ab-bone)" stroke="#ccc" stroke-width="0.6"/>
    <path d="M36,20 Q40,18 42,22 Q40,24 36,22 Q36,20 36,20Z" fill="url(#ab-bone)" stroke="#ccc" stroke-width="0.6"/>
    <!-- Stitch lines across body (dashed paths) -->
    <path d="M22,10 Q24,20 22,30 Q20,38 22,44" stroke="#555" stroke-width="1" fill="none" stroke-dasharray="2,2"/>
    <path d="M6,24 Q16,22 26,24 Q36,26 44,24" stroke="#555" stroke-width="1" fill="none" stroke-dasharray="2,2"/>
    <path d="M10,34 Q18,32 28,34 Q36,36 42,34" stroke="#444" stroke-width="0.8" fill="none" stroke-dasharray="1.5,2"/>
    <!-- Large left arm (primary, massive) — kept within bounds -->
    <path d="M5,22 Q2,26 2,34" stroke="#4a148c" stroke-width="10" fill="none" stroke-linecap="round"/>
    <path d="M5,22 Q2,26 2,34" stroke="#8e24aa" stroke-width="7" fill="none" stroke-linecap="round"/>
    <!-- Left fist/claws (within bounds) -->
    <ellipse cx="3" cy="35" rx="5" ry="5" fill="url(#ab-flesh)"/>
    <path d="M1,35 Q1,38 1,41" stroke="#1a1a2e" stroke-width="1.5" fill="none" stroke-linecap="round"/>
    <path d="M3,36 Q2,40 2,43" stroke="#1a1a2e" stroke-width="1.5" fill="none" stroke-linecap="round"/>
    <path d="M5,36 Q5,40 6,43" stroke="#1a1a2e" stroke-width="1.5" fill="none" stroke-linecap="round"/>
    <path d="M7,35 Q8,38 9,41" stroke="#1a1a2e" stroke-width="1.5" fill="none" stroke-linecap="round"/>
    <!-- Medium right arm (different size) -->
    <path d="M44,20 Q50,24 52,30" stroke="#4a148c" stroke-width="7" fill="none" stroke-linecap="round"/>
    <path d="M44,20 Q50,24 52,30" stroke="#8e24aa" stroke-width="5" fill="none" stroke-linecap="round"/>
    <!-- Right hand/claws -->
    <ellipse cx="52" cy="31" rx="5" ry="4" fill="url(#ab-flesh)"/>
    <path d="M50,32 Q48,36 47,39" stroke="#1a1a2e" stroke-width="1.3" fill="none" stroke-linecap="round"/>
    <path d="M52,33 Q52,37 52,40" stroke="#1a1a2e" stroke-width="1.3" fill="none" stroke-linecap="round"/>
    <path d="M54,32 Q55,36 55,38" stroke="#1a1a2e" stroke-width="1.3" fill="none" stroke-linecap="round"/>
    <!-- Third small vestigial arm (grotesque extra limb) -->
    <path d="M30,14 Q34,10 36,6" stroke="#4a148c" stroke-width="4" fill="none" stroke-linecap="round"/>
    <path d="M30,14 Q34,10 36,6" stroke="#7b1fa2" stroke-width="2.5" fill="none" stroke-linecap="round"/>
    <!-- Tiny clawed end -->
    <path d="M36,6 Q38,4 39,3" stroke="#1a1a2e" stroke-width="1" fill="none" stroke-linecap="round"/>
    <path d="M36,6 Q37,4 36,2" stroke="#1a1a2e" stroke-width="1" fill="none" stroke-linecap="round"/>
    <!-- Head (small for the body size) -->
    <ellipse cx="26" cy="10" rx="12" ry="10" fill="url(#ab-flesh)"/>
    <!-- Head highlight (mottled) -->
    <ellipse cx="22" cy="7" rx="7" ry="5" fill="url(#ab-flesh-hi)" opacity="0.3" stroke="none"/>
    <!-- Stitch on head -->
    <path d="M20,5 Q24,8 28,5" stroke="#555" stroke-width="0.8" fill="none" stroke-dasharray="1.5,2"/>
    <!-- Mismatched eyes (one big, one small, different) -->
    <!-- Left eye (larger, red) -->
    <ellipse cx="20" cy="9" rx="3.5" ry="3" fill="#b71c1c"/>
    <circle cx="20.5" cy="9" r="2" fill="#f44336"/>
    <circle cx="21" cy="9" r="1" fill="#1a0000"/>
    <circle cx="20.4" cy="8.5" r="0.5" fill="#fff" stroke="none"/>
    <!-- Right eye (smaller, yellow-green, different level) -->
    <ellipse cx="30" cy="7" rx="2.5" ry="2.8" fill="#f9a825"/>
    <circle cx="30.3" cy="7.5" r="1.5" fill="#f57f17"/>
    <circle cx="30.5" cy="8" r="0.8" fill="#1a0000"/>
    <circle cx="30" cy="7.2" r="0.4" fill="#fff" stroke="none"/>
    <!-- Extra tiny eye (above right) -->
    <circle cx="34" cy="5" r="1.2" fill="#1a1a2e"/>
    <circle cx="34" cy="5" r="0.8" fill="#fff"/>
    <circle cx="34.2" cy="4.8" r="0.3" fill="#1a1a2e" stroke="none"/>
    <!-- Mouth with toxic drool -->
    <path d="M18,14 Q22,17 26,16 Q30,17 34,14" fill="#2d0050" stroke="#1a1a2e" stroke-width="0.8"/>
    <!-- Toxic green drool -->
    <path d="M22,16 Q22,19 21,21" stroke="url(#ab-drool)" stroke-width="1.5" fill="none" stroke-linecap="round"/>
    <path d="M26,17 Q27,21 26,23" stroke="url(#ab-drool)" stroke-width="2" fill="none" stroke-linecap="round"/>
    <circle cx="26" cy="23" r="1.5" fill="#76ff03" opacity="0.8" stroke="none"/>
    <path d="M30,16 Q31,18 30,20" stroke="url(#ab-drool)" stroke-width="1.2" fill="none" stroke-linecap="round"/>
    <!-- Jagged teeth -->
    <path d="M19,14 L18,17" stroke="#ddd" stroke-width="1" fill="none" stroke-linecap="round"/>
    <path d="M22,15 L21,18" stroke="#ddd" stroke-width="1" fill="none" stroke-linecap="round"/>
    <path d="M33,14 L34,17" stroke="#ddd" stroke-width="1" fill="none" stroke-linecap="round"/>
    <path d="M30,15 L31,18" stroke="#ddd" stroke-width="1" fill="none" stroke-linecap="round"/>
  </g>

  <!-- Frame 1: Subtle lurch — slight arm shift and body sway -->
  <g transform="translate(56,0)" stroke="#1a1a2e" stroke-width="1.2" stroke-linejoin="round">
    <!-- Shadow -->
    <ellipse cx="26" cy="53" rx="20" ry="2.5" fill="#000" opacity="0.2" stroke="none"/>
    <!-- Legs (slightly shifted — lurching walk) -->
    <ellipse cx="14" cy="44" rx="9" ry="10" fill="url(#ab-flesh)"/>
    <ellipse cx="36" cy="45" rx="6" ry="9" fill="url(#ab-flesh)"/>
    <!-- Feet -->
    <ellipse cx="12" cy="53" rx="11" ry="3.5" fill="url(#ab-flesh-dark)"/>
    <ellipse cx="35" cy="53" rx="7" ry="3" fill="url(#ab-flesh-dark)"/>
    <!-- Main torso (same shape, slightly shifted — lurching right this time) -->
    <path d="M5,17 Q5,9 15,7 Q25,5 37,9 Q47,13 47,21 Q47,35 39,41 Q29,45 17,43 Q5,39 5,29 Q5,23 5,17Z" fill="url(#ab-flesh)"/>
    <!-- Body highlight -->
    <ellipse cx="20" cy="21" rx="12" ry="10" fill="url(#ab-flesh-hi)" opacity="0.3" stroke="none"/>
    <!-- Exposed bones -->
    <path d="M9,27 Q11,23 15,25 Q13,29 9,27Z" fill="url(#ab-bone)" stroke="#ccc" stroke-width="0.6"/>
    <path d="M37,19 Q41,17 43,21 Q41,23 37,21 Q37,19 37,19Z" fill="url(#ab-bone)" stroke="#ccc" stroke-width="0.6"/>
    <!-- Stitch lines -->
    <path d="M23,9 Q25,19 23,29 Q21,37 23,43" stroke="#555" stroke-width="1" fill="none" stroke-dasharray="2,2"/>
    <path d="M7,23 Q17,21 27,23 Q37,25 45,23" stroke="#555" stroke-width="1" fill="none" stroke-dasharray="2,2"/>
    <path d="M11,33 Q19,31 29,33 Q37,35 43,33" stroke="#444" stroke-width="0.8" fill="none" stroke-dasharray="1.5,2"/>
    <!-- Large left arm (shifted forward 2px) -->
    <path d="M5,21 Q1,25 1,32" stroke="#4a148c" stroke-width="10" fill="none" stroke-linecap="round"/>
    <path d="M5,21 Q1,25 1,32" stroke="#8e24aa" stroke-width="7" fill="none" stroke-linecap="round"/>
    <!-- Left fist/claws (within bounds) -->
    <ellipse cx="2" cy="33" rx="5" ry="5" fill="url(#ab-flesh)"/>
    <path d="M1,33 Q1,36 1,39" stroke="#1a1a2e" stroke-width="1.5" fill="none" stroke-linecap="round"/>
    <path d="M2,34 Q2,38 2,41" stroke="#1a1a2e" stroke-width="1.5" fill="none" stroke-linecap="round"/>
    <path d="M4,34 Q5,38 5,41" stroke="#1a1a2e" stroke-width="1.5" fill="none" stroke-linecap="round"/>
    <path d="M6,33 Q7,36 8,39" stroke="#1a1a2e" stroke-width="1.5" fill="none" stroke-linecap="round"/>
    <!-- Medium right arm (shifted back 2px) -->
    <path d="M45,19 Q51,24 53,32" stroke="#4a148c" stroke-width="7" fill="none" stroke-linecap="round"/>
    <path d="M45,19 Q51,24 53,32" stroke="#8e24aa" stroke-width="5" fill="none" stroke-linecap="round"/>
    <!-- Right hand/claws -->
    <ellipse cx="53" cy="33" rx="5" ry="4" fill="url(#ab-flesh)"/>
    <path d="M51,34 Q49,38 48,41" stroke="#1a1a2e" stroke-width="1.3" fill="none" stroke-linecap="round"/>
    <path d="M53,35 Q53,39 53,42" stroke="#1a1a2e" stroke-width="1.3" fill="none" stroke-linecap="round"/>
    <path d="M55,34 Q55,38 55,40" stroke="#1a1a2e" stroke-width="1.3" fill="none" stroke-linecap="round"/>
    <!-- Third small vestigial arm (slightly different angle) -->
    <path d="M31,13 Q35,9 37,5" stroke="#4a148c" stroke-width="4" fill="none" stroke-linecap="round"/>
    <path d="M31,13 Q35,9 37,5" stroke="#7b1fa2" stroke-width="2.5" fill="none" stroke-linecap="round"/>
    <!-- Tiny clawed end -->
    <path d="M37,5 Q39,3 40,2" stroke="#1a1a2e" stroke-width="1" fill="none" stroke-linecap="round"/>
    <path d="M37,5 Q38,3 37,2" stroke="#1a1a2e" stroke-width="1" fill="none" stroke-linecap="round"/>
    <!-- Head (same position, slight tilt) -->
    <ellipse cx="26" cy="10" rx="12" ry="10" fill="url(#ab-flesh)"/>
    <!-- Head highlight -->
    <ellipse cx="22" cy="7" rx="7" ry="5" fill="url(#ab-flesh-hi)" opacity="0.3" stroke="none"/>
    <!-- Stitch on head -->
    <path d="M20,5 Q24,8 28,5" stroke="#555" stroke-width="0.8" fill="none" stroke-dasharray="1.5,2"/>
    <!-- Mismatched eyes -->
    <!-- Left eye (larger, red) -->
    <ellipse cx="20" cy="9" rx="3.5" ry="3" fill="#b71c1c"/>
    <circle cx="20.5" cy="9" r="2" fill="#f44336"/>
    <circle cx="21" cy="9" r="1" fill="#1a0000"/>
    <circle cx="20.4" cy="8.5" r="0.5" fill="#fff" stroke="none"/>
    <!-- Right eye (smaller, yellow-green) -->
    <ellipse cx="30" cy="7" rx="2.5" ry="2.8" fill="#f9a825"/>
    <circle cx="30.3" cy="7.5" r="1.5" fill="#f57f17"/>
    <circle cx="30.5" cy="8" r="0.8" fill="#1a0000"/>
    <circle cx="30" cy="7.2" r="0.4" fill="#fff" stroke="none"/>
    <!-- Extra tiny eye -->
    <circle cx="34" cy="5" r="1.2" fill="#1a1a2e"/>
    <circle cx="34" cy="5" r="0.8" fill="#fff"/>
    <circle cx="34.2" cy="4.8" r="0.3" fill="#1a1a2e" stroke="none"/>
    <!-- Mouth with toxic drool -->
    <path d="M18,14 Q22,17 26,16 Q30,17 34,14" fill="#2d0050" stroke="#1a1a2e" stroke-width="0.8"/>
    <!-- Toxic green drool (slightly different drip) -->
    <path d="M22,16 Q21,19 20,21" stroke="url(#ab-drool)" stroke-width="1.5" fill="none" stroke-linecap="round"/>
    <path d="M26,17 Q26,21 25,23" stroke="url(#ab-drool)" stroke-width="2" fill="none" stroke-linecap="round"/>
    <circle cx="25" cy="23" r="1.5" fill="#76ff03" opacity="0.8" stroke="none"/>
    <path d="M30,16 Q30,18 29,20" stroke="url(#ab-drool)" stroke-width="1.2" fill="none" stroke-linecap="round"/>
    <!-- Jagged teeth -->
    <path d="M19,14 L18,17" stroke="#ddd" stroke-width="1" fill="none" stroke-linecap="round"/>
    <path d="M22,15 L21,18" stroke="#ddd" stroke-width="1" fill="none" stroke-linecap="round"/>
    <path d="M33,14 L34,17" stroke="#ddd" stroke-width="1" fill="none" stroke-linecap="round"/>
    <path d="M30,15 L31,18" stroke="#ddd" stroke-width="1" fill="none" stroke-linecap="round"/>
  </g>
</svg>
