<svg xmlns="http://www.w3.org/2000/svg" viewBox="0 0 52 26" width="52" height="26" shape-rendering="geometricPrecision">
  <defs>
    <linearGradient id="hh-body" x1="0" y1="0" x2="0" y2="1">
      <stop offset="0%" stop-color="#bf360c"/>
      <stop offset="100%" stop-color="#4e342e"/>
    </linearGradient>
    <linearGradient id="hh-belly" x1="0" y1="0" x2="0" y2="1">
      <stop offset="0%" stop-color="#6d4c41"/>
      <stop offset="100%" stop-color="#3e2723"/>
    </linearGradient>
    <linearGradient id="hh-flame-a" x1="0" y1="1" x2="0" y2="0">
      <stop offset="0%" stop-color="#ff9800"/>
      <stop offset="60%" stop-color="#ff5722"/>
      <stop offset="100%" stop-color="#ffeb3b" stop-opacity="0.5"/>
    </linearGradient>
    <linearGradient id="hh-flame-b" x1="0" y1="1" x2="0" y2="0">
      <stop offset="0%" stop-color="#ffcc02"/>
      <stop offset="100%" stop-color="#ff9800" stop-opacity="0.3"/>
    </linearGradient>
    <radialGradient id="hh-eye" cx="35%" cy="30%" r="60%">
      <stop offset="0%" stop-color="#ff5722"/>
      <stop offset="50%" stop-color="#dd2c00"/>
      <stop offset="100%" stop-color="#7f0000"/>
    </radialGradient>
    <radialGradient id="hh-shadow" cx="50%" cy="50%" r="50%">
      <stop offset="0%" stop-color="#000000" stop-opacity="0.25"/>
      <stop offset="100%" stop-color="#000000" stop-opacity="0"/>
    </radialGradient>
  </defs>

  <!-- ═══ FRAME 0: Stalking — body low, predatory ═══ -->
  <g stroke="#1a1a2e" stroke-linejoin="round">
    <!-- Shadow -->
    <ellipse cx="13" cy="25" rx="10" ry="1.8" fill="url(#hh-shadow)" stroke="none"/>

    <!-- Tail (curled up with flame tip) -->
    <path d="M3,14 Q0,10 2,7 Q4,5 5,8" fill="none" stroke="#6d4c41" stroke-width="2.5" stroke-linecap="round"/>
    <!-- Tail flame -->
    <path d="M4,6 Q2,3 4,2 Q5,4 5,6" fill="url(#hh-flame-a)" stroke="none"/>
    <path d="M4.5,5 Q3,2.5 4.5,1.5 Q5.5,3.5 5,5" fill="url(#hh-flame-b)" stroke="none"/>

    <!-- Back legs -->
    <path d="M18,16 Q17,20 16,24" stroke="#4e342e" stroke-width="3.5" fill="none" stroke-linecap="round"/>
    <ellipse cx="15.5" cy="24" rx="3" ry="1.3" fill="#3e2723" stroke-width="0.6"/>
    <path d="M21,16 Q22,20 22,24" stroke="#4e342e" stroke-width="3.5" fill="none" stroke-linecap="round"/>
    <ellipse cx="22" cy="24" rx="3" ry="1.3" fill="#3e2723" stroke-width="0.6"/>

    <!-- Main body (long, low, quadruped) -->
    <ellipse cx="13" cy="16" rx="12" ry="6" fill="url(#hh-body)" stroke-width="1"/>
    <!-- Belly (lighter underside) -->
    <ellipse cx="13" cy="18" rx="9" ry="3.5" fill="url(#hh-belly)" stroke-width="0.6"/>

    <!-- Spiky fur along spine -->
    <path d="M5,11 Q6,9 7,11" fill="#3e2723" stroke-width="0.5"/>
    <path d="M8,10 Q9,8 10,10" fill="#3e2723" stroke-width="0.5"/>
    <path d="M11,9.5 Q12,7.5 13,9.5" fill="#3e2723" stroke-width="0.5"/>
    <path d="M14,10 Q15,8 16,10" fill="#3e2723" stroke-width="0.5"/>
    <path d="M17,10.5 Q18,8.5 19,10.5" fill="#3e2723" stroke-width="0.5"/>

    <!-- Flame wisps on back -->
    <path d="M9,11 Q7,7 9,5 Q10,8 10,11" fill="url(#hh-flame-a)" stroke="none" opacity="0.85"/>
    <path d="M13,10 Q11,6 13,4 Q14,7 14,10" fill="url(#hh-flame-a)" stroke="none" opacity="0.9"/>
    <path d="M17,11 Q15,7 17,5 Q18,8 18,11" fill="url(#hh-flame-a)" stroke="none" opacity="0.8"/>
    <!-- Inner flame highlights -->
    <path d="M9.5,11 Q8,8 9.5,6.5 Q10.5,8.5 10,11" fill="url(#hh-flame-b)" stroke="none" opacity="0.6"/>
    <path d="M13.5,10 Q12,7 13.5,5.5 Q14.5,7.5 14,10" fill="url(#hh-flame-b)" stroke="none" opacity="0.6"/>

    <!-- Front legs (low stance) -->
    <path d="M6,16 Q5,20 5,24" stroke="#4e342e" stroke-width="3.5" fill="none" stroke-linecap="round"/>
    <ellipse cx="5" cy="24" rx="3" ry="1.3" fill="#3e2723" stroke-width="0.6"/>
    <path d="M9,16 Q9,20 10,24" stroke="#4e342e" stroke-width="3.5" fill="none" stroke-linecap="round"/>
    <ellipse cx="10" cy="24" rx="3" ry="1.3" fill="#3e2723" stroke-width="0.6"/>

    <!-- Neck (short, thick) -->
    <ellipse cx="23" cy="13" rx="4" ry="5" fill="#bf360c" stroke-width="0.8"/>

    <!-- Head (large, wolf-like) -->
    <ellipse cx="23" cy="9" rx="5.5" ry="5" fill="url(#hh-body)" stroke-width="1"/>
    <!-- Snout/muzzle -->
    <ellipse cx="26" cy="11" rx="4" ry="3" fill="#6d4c41" stroke-width="0.8"/>
    <!-- Muzzle highlight -->
    <ellipse cx="25" cy="10" rx="2" ry="1.5" fill="#8d6e63" opacity="0.5" stroke="none"/>

    <!-- Ears (pointy, upright) -->
    <path d="M19,6 Q18,2 21,4 Q20,6 19,6" fill="#4e342e" stroke-width="0.7"/>
    <path d="M19.5,5.5 Q19,3 21,4.5" fill="#bf360c" stroke="none"/>
    <path d="M25,5 Q26,1 28,4 Q27,6 25,5" fill="#4e342e" stroke-width="0.7"/>
    <path d="M25.5,4.5 Q26,2 27.5,4" fill="#bf360c" stroke="none"/>

    <!-- Eyes (glowing red) -->
    <ellipse cx="20.5" cy="8.5" rx="1.8" ry="1.8" fill="url(#hh-eye)" stroke-width="0.5"/>
    <ellipse cx="20.5" cy="8.5" rx="0.9" ry="0.9" fill="#1a1a2e" stroke="none"/>
    <circle cx="20" cy="8" r="0.45" fill="white" stroke="none"/>

    <ellipse cx="24.5" cy="8.5" rx="1.8" ry="1.8" fill="url(#hh-eye)" stroke-width="0.5"/>
    <ellipse cx="24.5" cy="8.5" rx="0.9" ry="0.9" fill="#1a1a2e" stroke="none"/>
    <circle cx="24" cy="8" r="0.45" fill="white" stroke="none"/>

    <!-- Nose -->
    <ellipse cx="27.5" cy="10.5" rx="1.5" ry="1" fill="#1a1a2e" stroke-width="0.5"/>
    <circle cx="27" cy="10.3" r="0.4" fill="#4e342e" stroke="none"/>

    <!-- Teeth (sharp, visible) -->
    <path d="M23.5,12 Q25,13.5 27.5,12.5" fill="none" stroke="#1a1a2e" stroke-width="0.7"/>
    <path d="M24,12.2 L23.5,13.5 M25.5,12.5 L25.5,14 M27,12.3 L27.2,13.5" fill="none" stroke="white" stroke-width="0.8"/>
  </g>

  <!-- ═══ FRAME 1: Pouncing — front legs extended forward ═══ -->
  <g transform="translate(26,0)" stroke="#1a1a2e" stroke-linejoin="round">
    <!-- Shadow (small — in leap) -->
    <ellipse cx="13" cy="25.5" rx="8" ry="1.4" fill="url(#hh-shadow)" stroke="none"/>

    <!-- Tail (streaming back with flame) -->
    <path d="M2,12 Q-1,9 0,6 Q2,4 3,7" fill="none" stroke="#6d4c41" stroke-width="2.5" stroke-linecap="round"/>
    <!-- Tail flame (streaming) -->
    <path d="M1,5 Q-1,2 1,1 Q2.5,3 3,6" fill="url(#hh-flame-a)" stroke="none"/>
    <path d="M1.5,4.5 Q0,2 1.5,1 Q3,3 2.5,5" fill="url(#hh-flame-b)" stroke="none"/>

    <!-- Back legs (tucked/kicking back) -->
    <path d="M16,16 Q14,20 13,25" stroke="#4e342e" stroke-width="3.5" fill="none" stroke-linecap="round"/>
    <ellipse cx="13" cy="25" rx="3" ry="1.3" fill="#3e2723" stroke-width="0.6"/>
    <path d="M20,15 Q22,18 22,22" stroke="#4e342e" stroke-width="3.5" fill="none" stroke-linecap="round"/>
    <ellipse cx="22" cy="22" rx="3" ry="1.3" fill="#3e2723" stroke-width="0.6"/>

    <!-- Main body (stretched out in leap) -->
    <ellipse cx="12" cy="15" rx="13" ry="5" fill="url(#hh-body)" stroke-width="1"/>
    <!-- Belly -->
    <ellipse cx="12" cy="17" rx="10" ry="3" fill="url(#hh-belly)" stroke-width="0.6"/>

    <!-- Spiky fur -->
    <path d="M4,11 Q5,9 6,11" fill="#3e2723" stroke-width="0.5"/>
    <path d="M7,10 Q8,8 9,10" fill="#3e2723" stroke-width="0.5"/>
    <path d="M10,9.5 Q11,7.5 12,9.5" fill="#3e2723" stroke-width="0.5"/>
    <path d="M13,10 Q14,8 15,10" fill="#3e2723" stroke-width="0.5"/>

    <!-- Flame wisps (larger — excitement) -->
    <path d="M8,10 Q6,5 8,3 Q9.5,6.5 9,10" fill="url(#hh-flame-a)" stroke="none" opacity="0.9"/>
    <path d="M12,9.5 Q10,4.5 12,2.5 Q13.5,6 13,9.5" fill="url(#hh-flame-a)" stroke="none" opacity="0.95"/>
    <path d="M16,10 Q14,5 16,3 Q17.5,6.5 17,10" fill="url(#hh-flame-a)" stroke="none" opacity="0.85"/>
    <path d="M8.5,10 Q7.2,6 8.5,4.5 Q9.5,7 9,10" fill="url(#hh-flame-b)" stroke="none" opacity="0.7"/>
    <path d="M12.5,9.5 Q11.2,5.5 12.5,4 Q13.5,6.5 13,9.5" fill="url(#hh-flame-b)" stroke="none" opacity="0.7"/>

    <!-- Front legs (extended forward — pouncing) -->
    <path d="M5,14 Q3,18 1,22" stroke="#4e342e" stroke-width="3.5" fill="none" stroke-linecap="round"/>
    <ellipse cx="1" cy="22.5" rx="3" ry="1.3" fill="#3e2723" stroke-width="0.6"/>
    <path d="M8,14 Q7,17 6,21" stroke="#4e342e" stroke-width="3.5" fill="none" stroke-linecap="round"/>
    <ellipse cx="6" cy="21.5" rx="3" ry="1.3" fill="#3e2723" stroke-width="0.6"/>

    <!-- Neck -->
    <ellipse cx="23" cy="11" rx="4" ry="5" fill="#bf360c" stroke-width="0.8"/>

    <!-- Head (lunging forward) -->
    <ellipse cx="24" cy="7" rx="5.5" ry="5" fill="url(#hh-body)" stroke-width="1"/>
    <!-- Snout (open, attacking) -->
    <ellipse cx="27.5" cy="9" rx="4.5" ry="3" fill="#6d4c41" stroke-width="0.8"/>
    <ellipse cx="27" cy="8" rx="2.5" ry="1.5" fill="#8d6e63" opacity="0.5" stroke="none"/>

    <!-- Ears (back — streamlined in leap) -->
    <path d="M20,4 Q20,1 22,3 Q21.5,5 20,4" fill="#4e342e" stroke-width="0.7"/>
    <path d="M24,3 Q25,0 26.5,2.5 Q25.5,4.5 24,3" fill="#4e342e" stroke-width="0.7"/>

    <!-- Eyes (wild, wide open) -->
    <ellipse cx="21.5" cy="6.5" rx="2" ry="2" fill="url(#hh-eye)" stroke-width="0.5"/>
    <ellipse cx="21.5" cy="6.5" rx="1" ry="1" fill="#1a1a2e" stroke="none"/>
    <circle cx="21" cy="6" r="0.5" fill="white" stroke="none"/>

    <ellipse cx="25.5" cy="6.5" rx="2" ry="2" fill="url(#hh-eye)" stroke-width="0.5"/>
    <ellipse cx="25.5" cy="6.5" rx="1" ry="1" fill="#1a1a2e" stroke="none"/>
    <circle cx="25" cy="6" r="0.5" fill="white" stroke="none"/>

    <!-- Nose -->
    <ellipse cx="29.5" cy="8.5" rx="1.5" ry="1" fill="#1a1a2e" stroke-width="0.5"/>

    <!-- Open jaw with fangs -->
    <path d="M24.5,10 Q27,11 30,10" fill="none" stroke="#1a1a2e" stroke-width="0.5"/>
    <path d="M24.5,10 Q27,14 30,10" fill="#1a1a2e" stroke-width="0.8"/>
    <path d="M24.5,10.5 Q27,13 30,10.5" fill="#4e342e" stroke="none"/>
    <!-- Fangs -->
    <path d="M25,10 L24.5,12.5 M27,10.5 L27,13 M29.5,10 L30,12.5" fill="none" stroke="white" stroke-width="1" stroke-linecap="round"/>
  </g>
</svg>
