<svg xmlns="http://www.w3.org/2000/svg" viewBox="0 0 40 20" width="40" height="20" shape-rendering="geometricPrecision">
  <defs>
    <linearGradient id="unit-armor" x1="0" y1="0" x2="0" y2="1">
      <stop offset="0%" stop-color="#4fc3f7"/>
      <stop offset="100%" stop-color="#0277bd"/>
    </linearGradient>
    <linearGradient id="unit-helm" x1="0" y1="0" x2="0" y2="1">
      <stop offset="0%" stop-color="#b0bec5"/>
      <stop offset="100%" stop-color="#546e7a"/>
    </linearGradient>
    <radialGradient id="unit-visor" cx="0.5" cy="0.3" r="0.5">
      <stop offset="0%" stop-color="#80deea"/>
      <stop offset="100%" stop-color="#00838f"/>
    </radialGradient>
  </defs>
  <!-- Frame 0: standing -->
  <g transform="translate(0,0)">
    <g stroke="#1a1a2e" stroke-width="1.2" stroke-linejoin="round">
      <!-- Shadow base -->
      <ellipse cx="10" cy="19" rx="6" ry="1.5" fill="#000" opacity="0.2" stroke="none"/>
      <!-- Boots -->
      <ellipse cx="7" cy="17.5" rx="3" ry="2" fill="#37474f"/>
      <ellipse cx="13" cy="17.5" rx="3" ry="2" fill="#37474f"/>
      <!-- Legs -->
      <rect x="5.5" y="13" width="3.5" height="5" rx="1.5" fill="#1565c0"/>
      <rect x="11" y="13" width="3.5" height="5" rx="1.5" fill="#1565c0"/>
      <!-- Torso -->
      <path d="M5,7 Q5,5 7,5 L13,5 Q15,5 15,7 L15,13 Q15,14 14,14 L6,14 Q5,14 5,13 Z" fill="url(#unit-armor)"/>
      <!-- Belt -->
      <rect x="5" y="12" width="10" height="1.8" rx="0.5" fill="#ffd54f"/>
      <!-- Chest emblem -->
      <circle cx="10" cy="9" r="1.8" fill="#ffd54f" opacity="0.7" stroke="none"/>
      <!-- Arms -->
      <rect x="3" y="6" width="2.5" height="6" rx="1.2" fill="url(#unit-armor)"/>
      <rect x="14.5" y="6" width="2.5" height="6" rx="1.2" fill="url(#unit-armor)"/>
      <!-- Hands -->
      <circle cx="4.2" cy="12.5" r="1.3" fill="#ffcc80"/>
      <circle cx="15.8" cy="12.5" r="1.3" fill="#ffcc80"/>
      <!-- Helmet -->
      <path d="M6,1 Q6,0 10,0 Q14,0 14,1 L14,5 Q14,6 10,6 Q6,6 6,5 Z" fill="url(#unit-helm)"/>
      <!-- Visor -->
      <rect x="7" y="3" width="6" height="2" rx="1" fill="url(#unit-visor)"/>
      <!-- Helmet highlight -->
      <path d="M7,1 Q10,0.5 13,1 L13,2 Q10,1.5 7,2 Z" fill="#fff" opacity="0.3" stroke="none"/>
      <!-- Weapon -->
      <rect x="15.5" y="3" width="1.5" height="6" rx="0.5" fill="#78909c"/>
      <rect x="15" y="2" width="2.5" height="1.5" rx="0.5" fill="#90a4ae"/>
    </g>
  </g>
  <!-- Frame 1: mid-step -->
  <g transform="translate(20,0)">
    <g stroke="#1a1a2e" stroke-width="1.2" stroke-linejoin="round">
      <ellipse cx="10" cy="19" rx="6" ry="1.5" fill="#000" opacity="0.2" stroke="none"/>
      <!-- Boots (stride) -->
      <ellipse cx="6" cy="17" rx="3" ry="2" fill="#37474f"/>
      <ellipse cx="14" cy="18.5" rx="3" ry="1.5" fill="#37474f"/>
      <!-- Legs (stride) -->
      <rect x="4.5" y="12.5" width="3.5" height="5" rx="1.5" fill="#1565c0" transform="rotate(-8,6,15)"/>
      <rect x="12" y="14" width="3.5" height="5" rx="1.5" fill="#1565c0" transform="rotate(8,14,16)"/>
      <!-- Torso -->
      <path d="M5,7 Q5,5 7,5 L13,5 Q15,5 15,7 L15,13 Q15,14 14,14 L6,14 Q5,14 5,13 Z" fill="url(#unit-armor)"/>
      <rect x="5" y="12" width="10" height="1.8" rx="0.5" fill="#ffd54f"/>
      <circle cx="10" cy="9" r="1.8" fill="#ffd54f" opacity="0.7" stroke="none"/>
      <!-- Arms (swinging) -->
      <rect x="2" y="7" width="2.5" height="5.5" rx="1.2" fill="url(#unit-armor)" transform="rotate(10,3,9)"/>
      <rect x="15.5" y="5" width="2.5" height="5.5" rx="1.2" fill="url(#unit-armor)" transform="rotate(-10,17,8)"/>
      <circle cx="3.5" cy="13" r="1.3" fill="#ffcc80"/>
      <circle cx="16.5" cy="10.5" r="1.3" fill="#ffcc80"/>
      <!-- Helmet -->
      <path d="M6,1 Q6,0 10,0 Q14,0 14,1 L14,5 Q14,6 10,6 Q6,6 6,5 Z" fill="url(#unit-helm)"/>
      <rect x="7" y="3" width="6" height="2" rx="1" fill="url(#unit-visor)"/>
      <path d="M7,1 Q10,0.5 13,1 L13,2 Q10,1.5 7,2 Z" fill="#fff" opacity="0.3" stroke="none"/>
      <!-- Weapon (angled) -->
      <rect x="16" y="1.5" width="1.5" height="6" rx="0.5" fill="#78909c" transform="rotate(-15,17,4)"/>
      <rect x="15.5" y="0.5" width="2.5" height="1.5" rx="0.5" fill="#90a4ae" transform="rotate(-15,17,1)"/>
    </g>
  </g>
</svg>
