<svg xmlns="http://www.w3.org/2000/svg" viewBox="0 0 32 32" width="32" height="32" shape-rendering="crispEdges">
  <!-- Plasma Rifle icon -->
  <!-- Barrel with plasma glow -->
  <rect x="0" y="8" width="12" height="4" fill="#7bed9f"/>
  <rect x="0" y="9" width="4" height="2" fill="#aaf0bb"/>
  <!-- Energy coils -->
  <rect x="4" y="6" width="2" height="8" fill="#5dd87a"/>
  <rect x="8" y="6" width="2" height="8" fill="#5dd87a"/>
  <!-- Body -->
  <rect x="10" y="4" width="14" height="12" fill="#5dd87a"/>
  <rect x="12" y="5" width="10" height="10" fill="#4cc06a"/>
  <!-- Plasma cell -->
  <rect x="14" y="6" width="6" height="6" fill="#7bed9f"/>
  <rect x="15" y="7" width="4" height="4" fill="#aaf0bb"/>
  <rect x="16" y="8" width="2" height="2" fill="#eeffee"/>
  <!-- Stock -->
  <rect x="22" y="5" width="10" height="6" fill="#4cc06a"/>
  <rect x="24" y="6" width="6" height="4" fill="#3daa55"/>
  <!-- Grip -->
  <rect x="20" y="14" width="6" height="10" fill="#3daa55"/>
  <rect x="22" y="15" width="2" height="8" fill="#2d8840"/>
  <!-- Magazine -->
  <rect x="14" y="14" width="5" height="8" fill="#3daa55"/>
  <rect x="15" y="15" width="3" height="6" fill="#2d8840"/>
</svg>
