<svg xmlns="http://www.w3.org/2000/svg" viewBox="0 0 32 32" width="32" height="32" shape-rendering="crispEdges">
  <!-- Minigun icon -->
  <!-- Multi-barrel -->
  <rect x="0" y="6" width="14" height="2" fill="#ff00ff"/>
  <rect x="0" y="9" width="14" height="2" fill="#ff00ff"/>
  <rect x="0" y="12" width="14" height="2" fill="#ff00ff"/>
  <rect x="0" y="7" width="2" height="8" fill="#dd00dd"/>
  <!-- Barrel shroud -->
  <rect x="12" y="4" width="4" height="14" fill="#dd00dd"/>
  <rect x="13" y="5" width="2" height="12" fill="#bb00bb"/>
  <!-- Body -->
  <rect x="14" y="5" width="10" height="12" fill="#ff00ff"/>
  <rect x="16" y="6" width="6" height="10" fill="#dd00dd"/>
  <!-- Motor housing -->
  <rect x="14" y="8" width="4" height="6" fill="#cc00cc"/>
  <!-- Stock/handle -->
  <rect x="22" y="6" width="8" height="5" fill="#dd00dd"/>
  <rect x="24" y="7" width="4" height="3" fill="#bb00bb"/>
  <!-- Grip -->
  <rect x="22" y="14" width="6" height="10" fill="#bb00bb"/>
  <rect x="24" y="15" width="2" height="8" fill="#990099"/>
  <!-- Ammo belt -->
  <rect x="16" y="16" width="6" height="4" fill="#ffcc44"/>
  <rect x="17" y="17" width="4" height="2" fill="#ddaa22"/>
</svg>
